# xmcd
#
# Track frame offsets: 
#        150
#        38280
#        63900
#        95183
#        113551
#        130359
#        151322
#        169982
#        199780
#        225070
#        236740
#
# Disc length: 3516 seconds
#
# Revision: 0
# Processed by: cddbd v1.5.2PL0 Copyright (c) Steve Scherf et al.
# Submitted via: ExactAudioCopyFreeDBPlugin 1.0
#
DISCID=840dba0b
DTITLE=Janis Joplin - Live In Honolulu
DYEAR=1970
DGENRE=Blues Rock
TTITLE0=Tell Mama
TTITLE1=Half Moon
TTITLE2=Move Over
TTITLE3=Stage Problems
TTITLE4=Maybe
TTITLE5=Summertime
TTITLE6=Janisbanter
TTITLE7=Get It While You Can
TTITLE8=Kozmic Blues
TTITLE9=Encore Break
TTITLE10=Piece Of My Heart
EXTD=
EXTT0=
EXTT1=
EXTT2=
EXTT3=
EXTT4=
EXTT5=
EXTT6=
EXTT7=
EXTT8=
EXTT9=
EXTT10=
PLAYORDER=
